<svg width="20" height="20" viewBox="0 0 20 20" fill="none" xmlns="http://www.w3.org/2000/svg">
<path d="M5.5 12.75C5.5 13.991 6.509 15 7.75 15H9.75C10.164 15 10.5 15.336 10.5 15.75C10.5 16.164 10.164 16.5 9.75 16.5H7.75C5.682 16.5 4 14.818 4 12.75C4 10.682 5.682 9 7.75 9H11.75C12.991 9 14 7.991 14 6.75C14 5.509 12.991 4.5 11.75 4.5H9.75C9.336 4.5 9 4.164 9 3.75C9 3.336 9.336 3 9.75 3H11.75C13.818 3 15.5 4.682 15.5 6.75C15.5 8.818 13.818 10.5 11.75 10.5H7.75C6.509 10.5 5.5 11.509 5.5 12.75ZM4.16602 8.12402C4.04002 8.20802 3.895 8.25 3.75 8.25C3.605 8.25 3.45998 8.20802 3.33398 8.12402L3.13702 7.9939C1.96402 7.2189 0 5.922 0 3.75C0 1.682 1.682 0 3.75 0C5.818 0 7.5 1.682 7.5 3.75C7.5 5.921 5.53598 7.2189 4.36298 7.9939L4.16602 8.12402ZM3.75 6.60107C4.761 5.92807 6 5.023 6 3.75C6 2.509 4.991 1.5 3.75 1.5C2.509 1.5 1.5 2.509 1.5 3.75C1.5 5.023 2.739 5.92707 3.75 6.60107ZM3.77002 2.75H3.76001C3.20801 2.75 2.76501 3.198 2.76501 3.75C2.76501 4.302 3.21802 4.75 3.77002 4.75C4.32202 4.75 4.77002 4.302 4.77002 3.75C4.77002 3.198 4.32202 2.75 3.77002 2.75ZM19.5 15C19.5 17.171 17.536 18.4689 16.363 19.2439L16.166 19.374C16.04 19.458 15.895 19.5 15.75 19.5C15.605 19.5 15.46 19.458 15.334 19.374L15.137 19.2439C13.964 18.4689 12 17.172 12 15C12 12.932 13.682 11.25 15.75 11.25C17.818 11.25 19.5 12.932 19.5 15ZM18 15C18 13.759 16.991 12.75 15.75 12.75C14.509 12.75 13.5 13.759 13.5 15C13.5 16.273 14.739 17.1771 15.75 17.8511C16.761 17.1771 18 16.273 18 15ZM15.77 14H15.76C15.208 14 14.765 14.448 14.765 15C14.765 15.552 15.218 16 15.77 16C16.322 16 16.77 15.552 16.77 15C16.77 14.448 16.322 14 15.77 14Z" fill="#25314C"/>
</svg>
